<?xml version="1.0" encoding="UTF-8" standalone="no"?><svg xmlns="http://www.w3.org/2000/svg" xmlns:xlink="http://www.w3.org/1999/xlink" fill="#ffffff" height="60" preserveAspectRatio="xMidYMid meet" version="1" viewBox="8.0 2.1 48.0 60.0" width="48" zoomAndPan="magnify"><g data-name="15-Supermarket Location" id="change1_1"><path d="M42.82178,20.43018a1.00121,1.00121,0,0,1,.11474.92089l-3,8A1.0005,1.0005,0,0,1,39,30H27a1.00026,1.00026,0,0,1-.97021-.75732l-2.6211-10.48487A.99825.99825,0,0,0,22.43848,18H21a1,1,0,0,1,0-2h1.43848a2.9958,2.9958,0,0,1,2.91064,2.27246L25.78076,20H42A.999.999,0,0,1,42.82178,20.43018ZM29,31a3,3,0,1,0,3,3A3.00328,3.00328,0,0,0,29,31Zm8,0a3,3,0,1,0,3,3A3.00328,3.00328,0,0,0,37,31Zm19-5c0,18.294-22.44971,35.09766-23.40576,35.8042a.99964.99964,0,0,1-1.18848,0C30.44971,61.09766,8,44.294,8,26a24,24,0,0,1,48,0Zm-6,0A18,18,0,1,0,32,44,18.02047,18.02047,0,0,0,50,26Z" fill="inherit"/></g></svg>