<?xml version="1.0" encoding="UTF-8"?><svg xmlns="http://www.w3.org/2000/svg" xmlns:xlink="http://www.w3.org/1999/xlink" height="458.0" preserveAspectRatio="xMidYMid meet" version="1.0" viewBox="-1.2 -0.1 477.3 458.0" width="477.3" zoomAndPan="magnify"><g id="change1_1"><path d="M417.5,117.5L279.8,93.3c-2.3-0.4-4.6,0.1-6.5,1.4L3.9,279.1c-4,2.8-5.1,8.3-2.3,12.3L112,452.8 c2.8,4,8.3,5.1,12.3,2.3l269.4-184.4c1.9-1.3,3.2-3.3,3.7-5.6l27.3-137.1C425.6,123.1,422.4,118.4,417.5,117.5z M376.4,164.1 c-8.9,0-16.2-7.2-16.2-16.2c0-8.9,7.2-16.2,16.2-16.2s16.2,7.2,16.2,16.2C392.5,156.9,385.3,164.1,376.4,164.1z" fill="#423838"/></g><g fill="#FFF" id="change2_1"><path d="M82.2,353.6c-17.5-25.3-10.3-57.4,16.9-76.2c27.2-18.8,59.8-14.2,77.3,11.1c17.5,25.3,10.3,57.4-16.9,76.2 C132.3,383.5,99.7,378.9,82.2,353.6z M148.1,308.1c-9-13-22.8-15.1-33.2-7.9c-10.4,7.2-13.3,20.8-4.3,33.8c9,13,22.8,15.1,33.2,7.9 C154.1,334.8,157.1,321.1,148.1,308.1z" fill="inherit"/><path d="M200.7,241.4l9.9,14.3l34.8-24.1l14.7,21.2L225.3,277l18.5,26.7l-28.2,19.5l-57.7-83.5l67.9-46.9l14.7,21.2 L200.7,241.4z" fill="inherit"/><path d="M277.5,188.3l9.9,14.3l34.8-24.1l14.7,21.2l-34.8,24.1l18.5,26.7l-28.2,19.5l-57.7-83.5l67.9-46.9 l14.7,21.2L277.5,188.3z" fill="inherit"/></g><g id="change3_1"><path d="M475.6,21.1c-0.5-0.9-1.6-1.1-2.5-0.6c-2.3,1.4-4.7,2.7-7,4.1c-19.5,11.3-39.7,23.1-53.1,41.6 c-1.1,1.6-2.2,3.2-3.2,4.9c-1.5-6.3-3.7-12.2-6.5-17.7c-3.1-6.2-17.2-44-16-51.2c0.2-1-0.5-1.9-1.5-2.1c-1-0.2-1.9,0.5-2.1,1.5 c-1.5,8.7,13.5,47.8,16.3,53.5c3.2,6.3,5.5,13.2,7,20.6c-3.7,6.7-6.7,13.7-9.6,20.5c-2.4,5.7-4.9,11.5-7.8,17 c1.2,0.1,2.3,0.3,3.5,0.4c0.1,0,0.2,0,0.3,0.1c2.6-5.3,5-10.7,7.2-16c2.3-5.3,4.6-10.8,7.3-16c0.6,4.9,0.9,10,0.8,15.3 c-0.1,5.5-1.2,24-12.5,33.1c-1.9,1.6-6.5,4.7-10.7,3.7c-0.8,0.1-1.6,0.1-2.5-0.1c-1.3-0.3-2.6-0.7-3.8-1.1c0.2,1.9,1.5,2.9,2.7,3.6 c1.6,1,3.4,1.4,5.4,1.4c3.5,0,7.4-1.6,11.2-4.7c12.1-9.8,13.7-28.3,13.8-35.8c0.1-7.2-0.4-14.1-1.6-20.6c1.6-2.7,3.2-5.4,5.1-7.9 c12.9-17.9,32.8-29.5,52-40.6c2.4-1.4,4.7-2.7,7-4.1C475.8,23,476.1,21.9,475.6,21.1z" fill="#7F6D5B"/></g></svg>