<?xml version="1.0" encoding="UTF-8"?><svg xmlns="http://www.w3.org/2000/svg" xmlns:xlink="http://www.w3.org/1999/xlink" height="502.2" preserveAspectRatio="xMidYMid meet" version="1.0" viewBox="0.0 0.0 1835.6 502.2" width="1835.6" zoomAndPan="magnify"><g id="change1_1"><path d="M1816.68,0c-51.83,25.61-136.54,66.45-190.08,86.36-77.52,29-158.28,50.48-239.33,69.18-83.21,19.21-167.71,34.84-252.94,43.77C1029.49,210.39,923.54,213.94,818,211.7c-111.54-2.32-223.61-8.75-333.41-27.22C322.85,157.25,152.48,107.29,14.23,0H0C133.6,97.22,268.09,155.23,452.87,189.16c57.91,10.67,116.71,17.56,175.54,22.15,85.14,6.7,170.87,8.93,256.31,7.83,103.53-1.32,207.55-4.47,310.15-17.47,78-9.85,154.84-26.83,230.92-45.61,68.07-16.86,135.83-35.55,200.94-60.24,58.8-22.37,153-67.8,208.86-95.42V0Z" fill="#c00"/></g><g id="change2_1"><path d="M1208,218a27.62,27.62,0,0,1-34.75-15.06,24.83,24.83,0,0,1,14.56-33.16h0a27.61,27.61,0,0,1,34.75,15.05h0A24.82,24.82,0,0,1,1208,218Z" fill="#d40000"/></g><g id="change3_2"><path d="M1210.81,386.7s.58-9.12,2-13.59a70.48,70.48,0,0,1,10-20.8,50.13,50.13,0,0,1,12.32-12.15c4.72-3.21,16-7.31,16-7.31h0c-5.13-4.31-13.33-10.74-14.92-16.64s.24-12.42,3.15-18.11c2.32-4.5,10.92-11.75,10.92-11.75s-9-3.39-13-5.69c-3.77-2.17-7.71-4.4-10.25-7.52a26.72,26.72,0,0,1-5.75-13.1c-.62-4.16,1.62-12.63,1.62-12.63s-11.72.33-17.29-.77c-4.22-.86-7.95-2.78-11.78-4.43-2.81-1.2-6.73-3.06-10.31-4.81,4.23,11.54,9.15,25.15,12.18,34.39,4,12.08,5.54,17.53,7.71,29.92,2.42,13.92,5.45,48.52,5.45,48.52s-4.13-25.15-7.35-37.57A460,460,0,0,0,1185,261.72c-2.69-7-5.11-14.16-9.24-20.49a52.61,52.61,0,0,0-3.64-4.81c-1.16,2.05-2.57,4.5-3.55,6.09-2.57,4.16-4.83,8.69-8.19,12.3-4.23,4.59-14.75,11.72-14.75,11.72s5.6,2.93,7.46,5.35a24.88,24.88,0,0,1,5.14,13.49,21.92,21.92,0,0,1-3.21,12.15c-3.36,5.75-14.47,13.89-14.47,13.89s9.36,3,13.31,5.81a31.54,31.54,0,0,1,9.94,11.17,29.86,29.86,0,0,1,2.82,15.11c-.25,3.61-3.4,10.19-3.4,10.19s11.08-.28,16.34,1.43a40.89,40.89,0,0,1,13.09,7.78c4.71,3.91,7.92,8.87,11.44,13.55,2.45,3.33,6.73,10.25,6.73,10.25Z" fill="#005f1c"/></g><g id="change4_1"><path d="M1350.41,313.46s-6.49-7.59-8.81-12.09a77.29,77.29,0,0,1-8-23.86,54.63,54.63,0,0,1,.37-18.88c1.22-6.08,6.95-17.92,6.95-17.92h0c-7.32.55-18.61,1.77-24.36-1.66s-9.27-9.88-11.32-16.55c-1.62-5.29-.42-17.5-.42-17.5s-9.64,4.2-14.51,5.45c-4.58,1.19-9.39,2.42-13.76,1.93a29.3,29.3,0,0,1-14.47-5.85c-3.64-2.78-8.35-11.1-8.35-11.1-8.72,9.51-10.74,11.1-17.35,14.9-6.46,3.7-16.95,5.9-21.08,7.28,12.08,5.78,26.31,12.69,35.7,17.59,12.3,6.42,17.69,9.48,28.82,17.53,12.51,9,41.21,33.8,41.21,33.8s-22.39-16.52-34.36-23.77A502.18,502.18,0,0,0,1235,235.51c-7.4-3.4-14.77-7.19-22.82-9a62.14,62.14,0,0,0-6.49-1c.65,2.48,1.41,5.45,1.87,7.47,1.16,5.23,2.81,10.46,3,15.84.18,6.83-2.6,20.38-2.6,20.38s6.61-2,9.88-1.5a27.25,27.25,0,0,1,14.29,6.64,23.92,23.92,0,0,1,6.73,12c1.74,7.07-.74,21.87-.74,21.87s9.58-4.8,14.81-5.59a34.59,34.59,0,0,1,16.27,1.13,32.65,32.65,0,0,1,13.71,9.67c2.57,3,5.11,10.55,5.11,10.55s8.44-8.66,13.86-11.32c5-2.45,10.83-3.52,16.15-3.92,6.67-.52,13,.89,19.27,1.9,4.56.71,13.19,2.85,13.19,2.85Z" fill="#a6c33c"/></g><g id="change2_2"><path d="M1210.42,260.47a18.84,18.84,0,0,0,11-25.18h0a21,21,0,0,0-26.37-11.41,18.85,18.85,0,0,0-11,25.18h0A21,21,0,0,0,1210.42,260.47Z" fill="#d40000"/></g><g id="change2_3"><path d="M1169.24,245.39a18.85,18.85,0,0,0,11-25.18h0a21,21,0,0,0-26.37-11.41h0a18.84,18.84,0,0,0-11,25.18,21,21,0,0,0,26.37,11.41Z" fill="#d40000"/></g><g><g id="change2_7"><path d="M398.81,189.28s-14.87,35.73-25,52.13c-12.85,20.83-43.78,36.74-45,58.13-.74,37.26,27.87,69.9,56,96.7,16.61,16,28.85,39.19,50.91,46.81,15.6,5.38,35,4,49.31-3.64,9.46-5,15.45-15.33,19.09-25.09a51.64,51.64,0,0,0,1.9-29.06c-2.14-9.48-9.15-17.38-14.22-25.79-7-11.6-16.68-19.89-22.43-34-2.72-6.64,2.08-14.07,4.38-20.77C482.54,279,509.07,231,509.07,231Z" fill="#d40000"/></g><g id="change5_11"><path d="M508.43,232.69c-20.23.46-97.9-28.79-112.16-42.19s8.48-61.58,21.11-49c22.24,22.06,94.53,27.54,108.79,40.94,7.13,6.7,5.63,19.27-3.12,26.43S518.52,232.48,508.43,232.69Z" fill="#fff"/></g><g id="change5_12"><path d="M410,233.88a2,2,0,0,0-.34-1.07l-.09-.18a2.29,2.29,0,0,0-3.15-.8l-7.8,4.62-.12-9a2.28,2.28,0,0,0-2.33-2.27H396a2.26,2.26,0,0,0-2.27,2.33l.12,9.06-7.92-4.44a2.27,2.27,0,0,0-3.12.89l-.09.18a2.27,2.27,0,0,0,.89,3.12l7.92,4.44-7.8,4.62a2.29,2.29,0,0,0-.8,3.15l.1.18a2.29,2.29,0,0,0,3.15.8l7.8-4.62.12,9a2.27,2.27,0,0,0,2.32,2.27h.22a2.26,2.26,0,0,0,2.26-2.33l-.12-9.05,7.92,4.43a2.27,2.27,0,0,0,3.12-.89l.1-.18A2.28,2.28,0,0,0,409,245l-7.92-4.44,7.8-4.62a2.27,2.27,0,0,0,1.13-2.08Z" fill="#fff"/></g><g id="change5_13"><path d="M446.32,252.82a2.13,2.13,0,0,0,.09-1.13l0-.21a2.28,2.28,0,0,0-2.6-1.9l-8.9,1.44,3.21-8.42a2.27,2.27,0,0,0-1.31-2.93l-.19-.06a2.27,2.27,0,0,0-2.93,1.31l-3.22,8.41-5.69-7a2.28,2.28,0,0,0-3.21-.34l-.15.12a2.3,2.3,0,0,0-.34,3.22l5.69,7-8.9,1.44a2.3,2.3,0,0,0-1.9,2.6l0,.21a2.3,2.3,0,0,0,2.6,1.9l8.91-1.44-3.21,8.42a2.27,2.27,0,0,0,1.31,2.93l.18.06a2.27,2.27,0,0,0,2.94-1.31l3.21-8.41,5.69,7a2.3,2.3,0,0,0,3.22.34l.15-.12a2.3,2.3,0,0,0,.34-3.22l-5.66-6.94,8.9-1.44a2.23,2.23,0,0,0,1.77-1.5Z" fill="#fff"/></g><g id="change5_14"><path d="M481.72,269.28a2.78,2.78,0,0,0,.34-1.1V268a2.3,2.3,0,0,0-2.21-2.41l-9.18-.43,5-7.74a2.33,2.33,0,0,0-.7-3.21l-.19-.12a2.32,2.32,0,0,0-3.21.7l-4.95,7.74-4.23-8.17a2.33,2.33,0,0,0-3.12-1l-.18.09a2.33,2.33,0,0,0-1,3.12l4.22,8.17-9.18-.43a2.3,2.3,0,0,0-2.41,2.21v.21a2.3,2.3,0,0,0,2.2,2.42l9.18.43-5,7.74a2.32,2.32,0,0,0,.71,3.21l.18.12a2.33,2.33,0,0,0,3.21-.7l5-7.74,4.22,8.16a2.32,2.32,0,0,0,3.12,1l.18-.09a2.33,2.33,0,0,0,1-3.12L470.46,270l9.18.43a2.22,2.22,0,0,0,2.08-1.1Z" fill="#fff"/></g><g id="change5_15"><path d="M392.45,204c-1.29,2.91-2.69,6-4.22,9.31,1.4.7,2.75,1.34,3.85,1.86,11.93,5.48,23.89,10.92,36.28,15.18,17.11,5.9,35.52,7.61,52.32,14.34,4.68,1.87,11.72,5.82,16.58,8.63,1.22-2.42,2.42-4.65,3.52-6.79a84.74,84.74,0,0,0-7.44-4.38c-9.66-4.71-20.16-7.55-30.37-11-13.68-4.56-28-7.25-41.34-12.66-8.16-3.28-20.74-9.92-29.18-14.51Z" fill="#fff"/></g><g id="change5_16"><path d="M368.8,248.39c-1.65,2-3.46,4-5.32,5.93,1.65,1.22,3.33,2.51,4.59,3.4,5.84,4.28,11.25,9.36,17.71,12.66,7.13,3.64,15.14,5.2,22.79,7.59,19.7,6.18,54.27,16.18,67.73,20.07.62-1.56,1.29-3.21,2-4.87-2.05-.61-4.07-1.22-5.6-1.71-11.35-3.64-21.23-9.54-32.49-13.49-14.34-5.05-30.53-7-44.29-13.49-7.87-3.7-20.26-11.6-27.11-16.09Z" fill="#fff"/></g><g id="change5_17"><path d="M507.29,393.73c-7.15.52-15.14,3.55-22,4.56-12.45,1.84-25.3,3.83-36.53,9.52-9.79,4.95-23.89,17.65-31,24.38a65,65,0,0,0,9,6.64c2.39-2.33,4.81-4.62,6.73-6.21,8.14-6.86,16.13-14.32,25.82-18.7,11.87-5.35,25.27-6.48,38.15-8.5a34.2,34.2,0,0,1,9.12.37A53.05,53.05,0,0,0,507.29,393.73Z" fill="#fff"/></g></g><g id="change4_2"><path d="M640.8,222.38c-15.11,32.55-44.17,124.3-25.6,146,57.21,22.3,128,38.82,138.8,35.58,14.22-4.28,19.58-34.11,23.65-61.52,9.42-47,35.06-68,14.13-78.84-25-13.4-126.2-50.17-151-41.24Z" fill="#a6c33c"/></g><g id="change3_3"><path d="M699.33,226.21,667.05,387.43l46.6,14.17s22.45-125.41,25.08-135.87,6.58-27.1,6.58-27.1Z" fill="#005f1c"/></g><g fill="#005f1c" id="change3_1"><path d="M720.87,234.61c-2.46-9.73-5.17-19.47-9.37-29.08-5.33-11.72-15.27-35.51-32.6-35.39-13.09,4.6-21.7,21.89-21.29,31.55,2.91,13,27.51,22.1,40.07,26.62,7.64,2.47,15.44,4.45,23.19,6.3Z" fill="inherit"/><path d="M720.87,234.61c7.07-6.86,14.38-13.61,22.91-19.43C754,208.31,776.18,195,787.17,205s8.64,30,4.2,36.76c-9.13,9.38-34.62,3.48-47.63.37-7.72-2.1-15.31-4.73-22.87-7.48Z" fill="inherit"/></g><g id="change3_4"><path d="M619.17,270.14l-8.29,31.39s38.55,18.26,58.89,24.32C705,336.37,778.2,346.47,778.2,346.47l8.72-24.69s-28.24-3.43-42.19-6.06c-22-4.1-44.33-7.46-65.35-15.08s-60.21-30.5-60.21-30.5Z" fill="#005f1c"/></g><g id="change2_4"><path d="M942.33,237s-15.88,36-25.06,53.35c-13.34,25.21-44.08,45.09-43.53,73.61.64,33.62,26.4,57.36,54.64,84.8,16.64,16.34,28.94,40.08,51.06,47.88,15.66,5.51,35.12,4.1,49.5-3.73,9.48-5.14,15.48-15.67,19.18-25.67a53.75,53.75,0,0,0,1.9-29.74c-2.15-9.7-9.18-17.77-14.29-26.37-7-11.87-16.74-20.34-22.52-34.75-2.72-6.79,2.11-14.41,4.38-21.26,8.75-26.35,35.36-75.42,35.36-75.42Z" fill="#d40000"/></g><g id="change5_1"><path d="M1043.81,457.15l-47.15,6.27-37,20.56c5.85,5.48,12.27,10,19.83,12.67,15.66,5.51,35.12,4.1,49.5-3.73,9.48-5.14,15.48-15.67,19.18-25.67a51.63,51.63,0,0,0,2.57-10.16h-6.91Z" fill="#fff"/></g><g id="change5_2"><path d="M1043.81,457.15c-15.82,1-32.1,1.32-47.15,6.27-13.4,4.44-37,20.56-37,20.56,5.85,5.48,12.27,10,19.83,12.67,15.66,5.51,35.12,4.1,49.5-3.73,9.48-5.14,15.48-15.67,19.18-25.67a51.63,51.63,0,0,0,2.57-10.16C1050.69,457.15,1046.1,457,1043.81,457.15Z" fill="#fff"/></g><g id="change5_3"><path d="M888.36,328.45c-8.38,10.92-14.87,22.3-14.62,35.55.43,21.72,11.29,39.31,26.55,56.44a98.22,98.22,0,0,0,7.8-14.65c4.23-10.92,8.11-22.86,6.67-34.45-1.49-12.18-7.77-23.86-15.57-33.35A61.26,61.26,0,0,0,888.36,328.45Z" fill="#fff"/></g><g id="change5_4"><path d="M928.65,267.17c-1.59,3.4-3.18,6.79-4.77,10,6,.43,12,1.41,16.18,3.4,6,2.88,6.8,11.07,12.79,13.95,7.62,3.67,17-.73,25,2.14,7.43,2.69,11.5,10.83,19,13.28,8,2.6,17-3,24.68.46,4.26,1.89,8.75,8.72,10.25,11.13,2.14-4.49,4.32-9,6.4-13.18-2.66-2.94-5.82-5.84-8.72-7.07-8.35-3.52-22,2.2-30.53-.95-7-2.57-8.42-11.16-15.39-13.76-7.56-2.82-17.9,3.45-25.27.24-7.07-3.09-6.06-13.58-13.07-16.76-4.86-2.18-9.57-2.67-16.55-2.91Z" fill="#fff"/></g><g id="change5_5"><path d="M916.42,295.38c-.68,0-1.38,0-2,0a139.89,139.89,0,0,1-8.51,11.78c5-1.17,10.13-3.58,15-1.87,7.71,2.69,10.22,12.45,17.75,15.6,7.19,3,15.54-.86,22.88,1.87,7.71,2.9,11.66,11.87,19.49,14.38s16.12-3.52,23.89-.62c5.05,1.87,10.86,7.35,15.15,12,1.46-3.86,3.21-8,5.07-12.33-4.92-4.84-10.73-9.7-15.87-11.63-8.11-3.09-16.89,6.7-25.09,4-7.34-2.45-10.89-15-18.2-17.56-7.07-2.48-15.61,5.14-22.58,2.45-6.58-2.54-8.11-14.11-14.78-16.43a37.66,37.66,0,0,0-12.17-1.62Z" fill="#fff"/></g><g id="change5_6"><path d="M948.94,204.48c-5.42,10.1-19.83,18.64-17.17,29.77,5.42,22.82,62.72,28.42,93.74,43.35,8.81,4.22,17.07,16.58,26.22,13.1,13.43-5.14,8.87-27.54,15.91-40.08,2.51-4.5,10-7.22,9.3-12.33-1.38-10.31-15.54-14.1-24.6-19.21-16.73-9.39-35.88-13.65-53.9-20.22-13.19-4.84-26.65-19.43-39.65-14.17-6.86,2.75-6.37,13.31-9.85,19.79Z" fill="#fff"/></g><g style="isolation:isolate"><g><g id="change3_7"><path d="M1683.16,91.45c35.76,17.94,23.63-14.41,38-18.46s32.89,9.63,29.76,21c-11.74,42.34-21.36,62.42-35.08,88.14-12.8,24-35.11,57.7-20.91,78.71s35.54,4.9,43.91-9c21.93-41,23.39-58,38.28-96.9s27.67-45.92,23.1-70c-3.26-17.14-18.45-31.68-33.71-41.38-13.25-8.41-30.49-14.83-46.1-11.93-16.16,3-31.45,16.78-39.19,28.51s-7.82,26.44,1.93,31.34Z" fill="#005f1c"/></g><g id="change5_7"><path d="M1733.16,73.19c-6.12-1.15-11.45-.66-16.22,2.44-9.76-5.84-28-23.51-24-29C1701.15,35.37,1721,28,1732.49,31.1,1734.4,46.21,1734.42,56.38,1733.16,73.19Z" fill="#fff"/></g><g id="change5_8"><path d="M1796.06,73.19c-8.28,6.11-39,22.25-45,20.27,0,0-2.58-8.86-3.12-10.78,4.14-13.65,21.22-35.05,25.31-34.53C1777.51,48.69,1797.47,68.11,1796.06,73.19Z" fill="#fff"/></g><g id="change5_9"><path d="M1777.91,150.36c-8.72,10-60.64,29-60.64,29,5.5-15.3,13.62-37.47,19-41.08,21.67-14.43,62.22-29.1,62.22-29.1C1795.26,121,1786.62,140.33,1777.91,150.36Z" fill="#fff"/></g><g id="change5_10"><path d="M1762.57,198.08c-4.56,22.16-11.47,40.07-19.42,45.48-11.49,7.83-46.77,19.61-46.77,19.61-.6-.74-1.33-1.67-1.9-2.54-6.55-9.68-9.46-24.79,4-33.6s45.78-25.25,64.07-28.95Z" fill="#fff"/></g></g></g><g><g><g id="change2_8"><path d="M1480.81,152.64s-15.72,33-26,47.94c-13.13,19-42.45,29.68-45.17,52.6-4.13,34.92,22.89,67.25,48.15,93.87,14.89,15.82,25.47,38.61,45.71,46.57,16.87,6.61,38,5.42,54.29-2.58,8.9-4.38,15.25-13.6,19.2-22.71a49.08,49.08,0,0,0,3.19-27.31c-1.54-9.15-7.79-16.83-12.16-25-6.07-11.27-14.79-19.56-19.52-33.08-2.23-6.39,5.13-19.38,5.13-19.38,9.47-23.82,29.13-66.27,29.13-66.27Z" fill="#d40000"/></g><g id="change5_18"><path d="M1483.39,113.35c-6.6,2.44-11.87,8-16,13.71-5.81,8-10.19,17.62-11.45,27.45-.46,3.55-.28,7.57,1.51,10.66,6.46,11.12,19.27,17.33,30.46,23.61,24.19,13.6,50.92,22.57,77.72,29.71,4.74,1.25,9.8,3.66,14.46,2.29,5.53-1.61,10.45-6.24,13-11.44,4.09-8.47-2.55-19.7,1.5-28.21,2.8-5.84,13.86-6.49,14.46-12.95.76-7.93-8.14-14.21-14.46-19.05-13.06-9.94-30.75-11.56-45.71-18.3-11.91-5.35-22.35-14.53-35-17.51-9.8-2.3-20.89-3.48-30.4,0Z" fill="#fff"/></g></g><g id="change5_19"><path d="M1486,244c-2.29.76-7.37-6.55-9.69-7.28s-10.65,2.41-12.12.49,3.95-9.06,3.92-11.48-5.6-9.39-4.2-11.38,9.83,1,12.12.19,7.19-8.23,9.51-7.53,2.11,9.64,3.58,11.6,10.07,4.31,10.1,6.73-8.51,5-9.91,7-1,10.92-3.31,11.69Z" fill="#fff"/></g><g id="change5_20"><path d="M1530.92,300.11c-2.29.76-7.37-6.58-9.66-7.32s-10.68,2.39-12.12.43,4-9,3.95-11.44-5.57-9.42-4.16-11.38,9.82,1,12.11.21,7.22-8.2,9.55-7.46,2.08,9.64,3.52,11.59,10,4.35,10.06,6.76-8.53,5-9.94,6.95-1,10.89-3.31,11.66Z" fill="#fff"/></g><g id="change5_21"><path d="M1520.8,375.73c-1.62,1.81-9.64-2.08-12-1.56s-8.1,7.34-10.3,6.36-1-9.82-2.21-11.9-9.48-5.41-9.24-7.83,9-4,10.65-5.78,2.23-10.71,4.59-11.2,6.58,7.35,8.81,8.32,10.86-1.19,12.08.92-5,8.54-5.2,10.95,4.47,9.92,2.85,11.72Z" fill="#fff"/></g><g id="change5_22"><path d="M1468.51,312c-2.29.76-7.37-6.55-9.69-7.28s-10.65,2.41-12.12.49,4-9.06,3.92-11.48-5.6-9.39-4.19-11.38,9.82.95,12.11.19,7.19-8.23,9.52-7.53,2.11,9.64,3.57,11.59,10.07,4.32,10.1,6.74-8.5,5-9.91,7-1,10.89-3.31,11.69Z" fill="#fff"/></g><g id="change5_23"><path d="M1573.54,332.72c-2.42,0-4.8,8.62-6.76,10.06s-10.86,1.23-11.6,3.52,6.7,7.25,7.47,9.55-2.2,10.7-.21,12.11,9-4.13,11.38-4.16a12.4,12.4,0,0,1,4.25,1.68,49.29,49.29,0,0,0,2.29-22.88C1578.44,341,1575.93,332.69,1573.54,332.72Z" fill="#fff"/></g><g id="change5_24"><path d="M1483.38,113.37c-6.57,2.44-11.87,8-16,13.7-5.81,8-10.18,17.59-11.44,27.44-.46,3.55-.27,7.56,1.53,10.68,6.46,11.11,19.27,17.32,30.47,23.62,24.17,13.58,50.94,22.58,77.74,29.7,4.71,1.26,9.79,3.64,14.47,2.3,5.54-1.62,10.43-6.24,12.94-11.44,4.1-8.48-2.54-19.71,1.53-28.21,2.81-5.84,13.86-6.52,14.47-12.94.76-8-8.14-14.23-14.47-19.06-13.06-9.94-30.75-11.57-45.71-18.3-11.93-5.35-22.33-14.53-35.06-17.53-9.88-2.32-20.92-3.51-30.47,0Z" fill="#fff"/></g></g><g id="change3_5"><path d="M125.65,176.16c0,1.43,1.37,2.47,3.94,2.93,4.65.83,12.94-.3,21.94-4.62a53.94,53.94,0,0,0,14.35-9.85c-.4,4.13-.8,8.32-1.2,12.61-.12,1.34-.24,2.63-.36,3.94a128.7,128.7,0,0,0-11.23,7.19c-2,1.38-4.19,2.91-6.27,4.16a2.13,2.13,0,0,0-.25.16c-3.64,2.23-7.83,4.16-11.65,6.39-8.57,5-13.77,10.4-13.34,12.94.52,3,8.1,1.25,18.35-2.29a74.5,74.5,0,0,0,9.27-3.8c1.44-.73,2.85-1.5,4.25-2.38a48.34,48.34,0,0,0,7.35-5.91c.82-.79,1.59-1.59,2.32-2.38-.73,8.22-1.37,15.69-2,22.66-2.9,1.08-7.92,5.24-14.5,8.66-1.07.58-2.2,1.13-3.39,1.69-6,2.75-12.39,4.71-17.07,6.63-4.07,1.69-6.83,3.28-7.16,4.78-.4,1.77,2.9,3.09,8.62,3.18A44.87,44.87,0,0,0,143.94,240a40.71,40.71,0,0,0,8.23-4.16,31.67,31.67,0,0,0,8-7.52c-.67,7.31-1.34,14.19-2,21.07-4.2.1-10.65,2-17.66,5.08-1.56.71-3.09,1.44-4.56,2.17-9.23,4.72-16.18,10.22-15.75,13.68.46,3.82,10,3.79,21.57-.92.46-.18.92-.36,1.37-.58a58.13,58.13,0,0,0,13.8-8.26c-.55,4.74-1.1,9.55-1.74,14.56-2.63,0-6.82,3.34-11.6,6.55-1,.7-2,1.35-3.12,2.11-5.57,3.67-10.52,6.82-13.55,10.83-1.47,1.93-2.05,3.64-1.62,4.87.52,1.56,2.57,2,5.47,1.71a36.85,36.85,0,0,0,14.17-5.05,34.66,34.66,0,0,0,6.67-5.17c.64-.67,1.22-1.32,1.77-2-3.67,26.65-6.94,44-6.12,47.88.71,3.33,6.52-9.48,12.85-36.38.8,2.09,1.75,4.32,2.73,6.58.7,1.65,1.43,3.34,2.14,4.87,2.84,6.24,5.69,11.93,8.2,12.33h0c2.66.45,4.8-6.4,1.71-16.86-.31-1-.67-2.11-1.1-3.18-3.12-8-7.74-13-11.2-14.9l.55-2.66c.95-4.68,1.87-9.49,2.72-14.41,1.9,3.55,4,7.34,5.82,10.95l.15.34c5.05,10.18,8.57,19.18,12.3,16.12,2.78-2.3,4.16-11.72.34-21.94a41,41,0,0,0-4.72-9c-4-5.84-8.16-9.18-11.59-10.77q1.74-11.61,3.3-24.44c2.24,3.82,4.62,7.64,6.64,11.47.28.55.58,1.1.86,1.65,3,5.87,4.68,10.25,6.73,14.9,1.83,4.13,3.43,7.25,5.29,7.77s3.92-1.87,4.71-6.88.28-12.3-3.09-20a23.24,23.24,0,0,0-1-2.14c-4.74-9.43-12-15.18-17.37-17.2q-.78-.27-1.47-.45c.7-6.46,1.37-13.16,2.05-20.17,2,2.36,4.56,5.08,7.46,8,1.26,1.28,2.54,2.6,3.83,3.88a53,53,0,0,1,7,8.29c3.74,5.42,5.33,11.14,7.87,12.18h0c1.8.74,8.38-4.77,3.73-17.68a33.81,33.81,0,0,0-5.45-9.33,40.42,40.42,0,0,0-8.38-7.65c-5.94-4.28-11.56-6.43-15.27-6.73.74-8.26,1.44-16.55,2.11-24.54.74.8,1.63,1.65,2.61,2.57,4.22,3.92,9.11,8.08,13.88,14.26.19.24.37.49.59.73a143.85,143.85,0,0,1,8.53,13.34c2.11,3.4,4,5.54,5.84,4.25h0c3-2,5.05-14.19-3.61-26.64a38.25,38.25,0,0,0-5-5.78,33.63,33.63,0,0,0-16.12-8.78,15,15,0,0,0-6.22-.16c.16-2,.31-3.94.49-5.84.4-4.77.74-9.15,1.08-13.19,3.88,3,9.54,6.76,15,11.32,2,1.62,3.82,3.31,5.75,5.05,4.62,4.25,8.07,7.86,10.83,9.76s4.8,2,5.44-1.16h0c1-5-2.81-16.06-12.94-24.51a43.49,43.49,0,0,0-8.14-5.35,30.61,30.61,0,0,0-14.62-3.58c-.21,0-.43,0-.61,0,3.18-39.83,2.72-39.07,1-44h0C179.37,85.2,170,118.46,167.13,152c-4.41,1-11.07,4.31-18.42,8.13-8.65,4.5-17.31,9.24-20.89,12.64C126.47,174,125.68,175.11,125.65,176.16Z" fill="#005f1c"/></g><g id="change4_3"><path d="M149.36,187.51c1.74,13.58.39,25-3,25.42s-7.65-10.22-9.4-23.83a83.41,83.41,0,0,1-.67-14.84c-3.85,3.79-8,7.65-12.42,11.65,2.88,3.89,5.39,11,5.84,19.61a50.08,50.08,0,0,1-.33,8.94h0c-1.23,9.33-5,15.29-8.42,15s-5.72-6.76-6.85-15c-.33-2.51-.61-5.2-.73-8a80.83,80.83,0,0,1,.12-11.41c-2.54,2.05-5.08,4-7.65,5.9-1.19.89-2.35,1.75-3.55,2.57A65.28,65.28,0,0,1,98,222.32c-.09.21-.15.43-.24.64-5.66,14.69-14.41,23.71-16.89,22.18s1.77-12.75,6.76-26.06l.21-.58c1-2.54,1.87-5,2.79-7.35-5.63,3.49-11.17,6.55-16.52,9.27a15,15,0,0,1,.15,6.49,24.33,24.33,0,0,1-2.94,7.56A30.18,30.18,0,0,1,69,237.92c-5.94,7.71-13.25,11.72-16.13,10.77-3.3-1.1.59-7.68,6.22-15.51.42-.58.85-1.19,1.28-1.74,2.11-3,3.46-4.59,4.71-6.7-4.16,1.86-8.2,3.48-12,4.89-15.15,5.6-27,7.83-32,8.23-1.84.15-2.85.06-2.94-.24s.8-.83,2.48-1.53c4.68-2,15.69-5.51,30.13-12q5.93-2.66,12.36-6c-.27.06-.58.09-.85.15a90,90,0,0,1-17,.95c-5.17-.18-8.51-.77-8.63-1.9s3-2.54,8.08-3.76,9.63-1.71,16.36-2.78c2.48-.4,4.68-.8,6.89-1.26,8-1.65,14.22-3.91,16.49-3.67,3.94-2.51,8-5.23,12-8.17.15-.27.31-.55.46-.79a56,56,0,0,1-10.62,1c-1.22,0-2.44,0-3.61-.13C69.91,197,61.43,192.19,62,189.8s9.7-2.08,21-2H86.3c9.64,0,18.27-.37,22.15.64,2.51-2,5-4.19,7.44-6.39l3.39-3.21a21.58,21.58,0,0,1-8.17.15,32.4,32.4,0,0,1-7.34-2.14,33.65,33.65,0,0,1-8.41-5.08c-4.62-3.76-6.76-7.56-5.54-9.51s5.48-1.72,10.77-.07c2.6.8,5.29,1.9,8.11,3.09l5.57,2.45h0c4.8,2.17,9.08,4.16,9.91,6.46,4.53-4.32,8.81-8.51,12.72-12.67-2.87.64-7.74-.06-13.09-3.88a30.22,30.22,0,0,1-5.29-4.87,32.36,32.36,0,0,1-4-5.63c-4.28-7.58-4.5-14-2-15.2s6.88,2.81,11.81,8.38c1.25,1.41,2.42,2.78,3.7,4.28s2.36,2.76,3.52,4c3.73,4.07,7.62,7.5,8.08,10,8.75-9.72,15.29-19.58,18-31.17,2.29-9.91,3.48-16.55,3.76-15.82h0c.76,0,1.53,6.06.43,16.52-2,16.06-8.57,27.63-18.11,38.46C145.93,170.65,148.19,178.42,149.36,187.51Z" fill="#a6c33c"/></g><g id="change3_6"><path d="M190.53,115a66.2,66.2,0,0,0-1.89,25.55,64,64,0,0,0-9.09,5.26c-.43.27-.86.55-1.25.85-7.47,5.05-15.91,11.14-17.29,14.75s5.23,6.45,16.61.89a39.83,39.83,0,0,0,8.48-5.63,34.69,34.69,0,0,0,4.77-5c.64,2.36,1.41,4.68,2.23,7-3.82,2.93-9,9.48-13.55,17.68-6.88,12.3-9.94,23.71-6.85,25.42s11.23-6.82,18.08-19.15a88.26,88.26,0,0,0,6.33-13.89c2.2,5.11,4.71,10.34,7.4,15.88-4.25,2.6-9.33,8.38-13.09,16.49a50.23,50.23,0,0,0-3.09,8.66c-2.39,9.36-1.1,16.52,2.33,17.5s8-4.26,12.29-11.69c1.29-2.23,2.57-4.74,3.8-7.37a91.05,91.05,0,0,0,4.28-11q2.43,4.41,5.05,8.57c.79,1.29,1.59,2.57,2.42,3.82a67.56,67.56,0,0,0-3.19,19.65v.7c-.21,16.18,4.68,28.14,7.62,27.66s3.21-12.85,3.55-27.45v-.64c.06-2.78.12-5.51.15-8.08,4,5.48,8.14,10.56,12.21,15.18a15.13,15.13,0,0,0-2.63,6.15,25.15,25.15,0,0,0-.09,8.32,26.32,26.32,0,0,0,.95,4.19c2.69,9.64,8.16,16.28,11.25,16.46,3.58.21,2.39-7.56,0-17.16-.18-.74-.36-1.44-.55-2.18-.85-3.64-1.53-5.69-1.92-8.19q4.91,5,9.6,9.3c12.3,11.16,22.79,17.83,27.35,20.1,1.72.85,2.7,1.16,2.88.88s-.46-1.07-1.81-2.41c-3.7-3.68-12.88-11.26-24.16-23-3.06-3.18-6.25-6.67-9.49-10.4l.77.46a92.64,92.64,0,0,0,15.87,7.4c5,1.81,8.42,2.51,9,1.5s-1.87-3.55-6.27-6.67-8.54-5.35-14.57-8.93c-2.2-1.32-4.16-2.54-6.08-3.83-7-4.65-12.06-9.18-14.35-9.82q-4.18-5.87-8.32-12.42c0-.33-.1-.64-.13-.95a58,58,0,0,0,9.76,5c1.17.46,2.36.89,3.49,1.29,12.48,4.13,22.4,2.81,22.73.3s-8.44-5.69-19.24-10c-1-.4-2-.83-3.12-1.26-9.18-3.67-17.32-7.34-21.39-7.86-1.59-2.9-3.15-5.9-4.65-8.93-.67-1.47-1.34-2.94-2-4.38a22.12,22.12,0,0,0,7.74,3.28,32.56,32.56,0,0,0,7.84.76,34.88,34.88,0,0,0,10-1.62c5.84-1.8,9.33-4.62,8.93-7s-4.59-3.74-10.25-4.17a87,87,0,0,0-8.93-.15c-2,.06-4.59.15-6.27.22-5.42.24-10.25.49-11.93,2.35-2.66-5.84-5.17-11.5-7.31-17,2.5,1.72,7.4,2.91,14,1.32a32.32,32.32,0,0,0,6.91-2.6,35.85,35.85,0,0,0,5.94-3.86c7-5.6,9.66-11.68,7.77-13.73s-7.65,0-14.47,3.48c-1.75.86-3.4,1.75-5.17,2.67s-3.31,1.71-4.9,2.44c-5.11,2.48-10.13,4.26-11.56,6.46-4.62-12.64-7.1-24.57-5.23-36.62,1.62-10.34,3-17.13,2.44-16.55h0C196.53,99.15,193.47,104.63,190.53,115Z" fill="#005f1c"/></g><g id="change2_5"><path d="M212,116c-13.61,4.13-28.33-3.64-32.89-17.41a25.31,25.31,0,0,1,16.46-32.4h0c13.61-4.13,28.33,3.64,32.89,17.41h0A25.28,25.28,0,0,1,212,116Z" data-name="path7993" fill="#d40000"/></g><g id="change2_6"><path d="M172.85,145.75a20.8,20.8,0,0,0,13.55-26.68h0a22,22,0,0,0-27.07-14.32h0a20.8,20.8,0,0,0-13.55,26.68,22,22,0,0,0,27.07,14.32Z" data-name="path7997" fill="#d40000"/></g></svg>